<?xml version="1.0" encoding="UTF-8"?>
<svg viewBox="0 0 744.09448819 1052.3622047" width="24px" xmlns="http://www.w3.org/2000/svg" fill="var(--text-dark)" >       
 <path d="m250.64 844.58c-17.693-8.6006-25.564-16.689-28.819-29.615-2.9719-11.803-6.2471-14.002-21.033-14.122-4.1127-0.03355-12.571-1.6071-18.796-3.4968-19.155-5.8146-74.864-31.697-95.436-44.339-10.733-6.596-20.583-11.993-21.89-11.993s-11.202-8.6978-21.991-19.328c-17.633-17.374-19.824-20.587-21.675-31.78-4.626-27.98 2.5527-43.021 31.693-66.408 17.515-14.056 18.779-15.308 27.315-27.052 17.753-24.423 22.067-33.879 27.29-59.821 2.898-14.395 5.931-27.854 6.74-29.911s1.237-6.7121 0.95116-10.346 0.75201-7.3933 2.3062-8.3538c1.5761-0.9741 2.6122-6.8707 2.3427-13.333-0.2657-6.3726 0.12899-13.269 0.87711-15.325s1.9029-19.442 2.5662-38.635c0.88052-25.478 3.326-45.322 9.0613-73.531 15.284-75.173 30.994-131.15 42.763-152.38 1.7992-3.2451 3.3111-6.4904 3.3596-7.2116s5.1139-9.6945 11.256-19.94c14.645-24.429 54.88-64.312 81.657-80.943 15.234-9.4616 20.409-14.09 21.491-19.22 2.1263-10.084 17.482-25.61 31.14-31.486 24.801-10.669 58.551-11.155 75.783-1.0911 9.9815 5.8295 19.283 19.239 19.326 27.863 0.02739 5.4227 2.3768 7.6118 14.332 13.354 18.129 8.7074 65.205 43.557 81.854 60.594 19.564 20.021 38.174 49.641 54.711 87.076 2.4223 5.4836 4.5228 10.531 4.6678 11.217s0.97394 2.3679 1.8423 3.7388c2.4333 3.8416 18.427 45.845 22.778 59.821 5.7161 18.36 17.953 74.48 25.546 117.15 3.6588 20.564 7.262 39.071 8.0072 41.127s1.1006 5.7686 0.78991 8.2494 0.76405 6.1119 2.3884 8.0691 2.3159 5.2193 1.537 7.2492-0.28994 4.3869 1.0867 5.2377 2.2769 3.4104 2.0006 5.6881 0.18776 5.8236 1.0312 7.88 5.5734 19.428 10.511 38.604c13.455 52.252 27.891 80.599 58.753 115.37 19.323 21.767 24.692 33.052 24.662 51.83-0.02874 18.166-9.2503 35.966-25.799 49.799-28.774 24.052-102.68 46.876-184.8 57.073-17.822 2.2129-34.647 5.0441-37.388 6.2917s-27.418 3.4762-54.836 4.9526c-118.72 6.3927-106.27 4.9968-115.37 12.93-18.334 15.971-44.373 19.295-66.583 8.4979zm230.56-69.889c22.62-2.0375 51.222-4.9879 63.56-6.5565 25.335-3.221 72.226-13.773 79.762-17.949 2.7418-1.5194 5.546-2.8579 6.2314-2.9743 5.7187-0.97135 38.585-20.35 48.253-28.451 16.666-13.965 19.979-13.534 17.8 2.3146-2.0046 14.575 0.46257 15.83 9.6529 4.9077 9.1933-10.926 12.176-23.619 7.8227-33.287-3.5933-7.9795-12.148-18.98-14.759-18.98-2.4941 0-1.6203 9.5831 1.0227 11.217 3.1051 1.919 3.2743 10.439 0.24452 12.312-1.2364 0.76417-8.2468-2.6542-15.578-7.5963-19.701-13.28-37.651-21.786-66.92-31.712-27.225-9.2327-71.746-19.115-86.116-19.115-4.5691 0-9.0417-1.1879-9.939-2.6398s-4.048-2.3277-7.0016-1.9463-6.6215-0.08624-8.1509-1.0392c-4.2215-2.6304-138.82-6.5034-162.97-4.6896-19.877 1.4926-21.141 1.9238-20.444 6.9783 0.40833 2.9631-0.38393 6.0836-1.7606 6.9344s-1.8656 3.2078-1.0867 5.2377 0.03676 5.353-1.6493 7.3846-2.4777 5.942-1.7591 8.6897 0.23642 5.6572-1.0714 6.4655-2.1518 3.3331-1.8755 5.6108-0.16341 5.8236-0.97711 7.88c-2.3843 6.0255-9.2569 42.359-9.2569 48.938 0 3.6343 5.4482 12.636 13.709 22.651 7.54 9.1411 13.709 18.824 13.709 21.517 0 4.7678 1.4288 4.8534 54.213 3.2502 29.817-0.90564 72.72-3.3137 95.34-5.3511zm-258.36-6.8815c2.2757-9.0611 22.055-26.567 35.42-31.349l12.243-4.3803 9.3118-50.992c5.1215-28.046 9.3443-51.885 9.384-52.976 0.07306-2.0088-47.876 0.08283-54.764 2.389-2.0564 0.68847-9.6872 1.6323-16.957 2.0974s-14.561 1.8698-16.202 3.1216-9.7131 3.6882-17.938 5.4142c-39.063 8.1972-82.692 26.483-96.23 40.331-11.306 11.565-10.04 21.837 4.6283 37.55 25.911 27.757 64.501 47.199 102.82 51.801 26.317 3.1607 26.749 3.1148 28.286-3.0072zm-165.42-76.411c0.05-11.12 8.6018-22.088 26.467-33.946 16.893-11.213 29.058-16.053 62.189-24.741 13.636-3.5762 26.476-7.2077 28.532-8.0701s4.7474-1.3342 5.9802-1.0483 4.0368-0.26894 6.2314-1.2328 5.1117-1.925 6.4826-2.1358 4.175-1.0609 6.2314-1.8889c11.918-4.799 63.032-10.757 125.24-14.599 35.353-2.1832 60.22-2.1851 102.19-0.0077 84.221 4.3688 147.06 10.801 153.2 15.681 1.6536 1.3155 4.0998 1.7161 5.436 0.89029s3.0554-0.48874 3.8205 0.74914 5.6096 3.0143 10.766 3.9477 19.248 5.0572 31.316 9.164 23.733 7.1157 25.923 6.6864c7.5057-1.4715-33.253-19.421-59.257-26.096-14.297-3.67-28.065-8.4389-30.595-10.597-4.4257-3.776-4.3785-3.9869 1.2463-5.5671 12.426-3.4908 27.87-1.8523 50.317 5.3383 34.904 11.181 35.94 10.666 25.714-12.785-7.8106-17.911-10.825-25.351-11.485-28.342-0.30212-1.3709-1.7129-3.8946-3.1351-5.6083s-1.7503-3.1157-0.72912-3.1157 0.58007-1.5382-0.98022-3.4183c-6.2551-7.5369-15.214-48.505-21.6-98.777-2.177-17.136-6.01-41.813-8.5177-54.836s-5.3532-28.727-6.3233-34.896c-2.302-14.64-25.823-92.552-29.158-96.587-1.4168-1.7136-1.9621-3.1157-1.2119-3.1157 2.3111 0-32.222-67.902-41.684-81.962-4.9065-7.291-8.9209-14.265-8.9209-15.498s-1.1216-2.2421-2.4926-2.2421-2.4926-1.4933-2.4926-3.3185c0-3.7801-35.583-36.562-39.686-36.562-1.4784 0-2.688-1.1217-2.688-2.4926s-1.0339-2.4926-2.2975-2.4926-9.6624-4.9387-18.664-10.975-23.845-13.322-32.984-16.191-21.68-8.1828-27.867-11.809c-10.441-6.1188-10.919-6.8338-6.653-9.9531 2.5278-1.8484 10.007-4.0785 16.62-4.9558s12.024-2.5722 12.024-3.7665-1.1494-2.1714-2.5542-2.1714-3.6204-2.8041-4.9234-6.2314-4.0794-6.2314-6.1697-6.2314-3.8005-1.0287-3.8005-2.286c0-3.8111-22.929-7.3405-35.154-5.4111-14.018 2.2124-32.543 12.711-39.386 22.32-6.0842 8.5445-4.8299 10.302 7.3514 10.302 15.772 0 20.2 12.475 5.6993 16.057-27.836 6.8748-77.858 41.508-101.76 70.453-42.059 50.935-58.262 102.93-74.795 240.02-6.5131 54.005-15.683 114.14-17.991 117.98-0.68593 1.1415-1.56 7.0456-1.9424 13.12s-2.0787 12.712-3.7696 14.749-2.2389 3.7045-1.2178 3.7045 0.55833 1.5644-1.0285 3.4765-2.6678 4.4358-2.4021 5.6083-0.43126 4.3751-1.5489 7.1169c-6.1634 15.12-16.207 41.42-16.207 42.438 0 2.2015 17.002 1.1965 29.823-1.7628 11.751-2.7125 13.163-2.5363 17.938 2.2386l5.1828 5.1828-5.9082 3.7099c-3.2495 2.0404-13.76 5.0843-23.356 6.7642-45.714 8.0024-72.215 20.502-85.259 40.212-7.8573 11.873-6.5512 21.922 4.6092 35.461 8.7539 10.62 12 9.102 12.067-5.6425z"/>
</svg>